<svg width="2000px" height="1056px"
 viewBox="0.00 0.00 1009.18 532.74" xmlns="http://www.w3.org/2000/svg" xmlns:xlink="http://www.w3.org/1999/xlink">
<g id="graph0" class="graph" transform="scale(1.0 1.0) rotate(0) translate(4 528.74)">
<title>ContextMapGraph</title>
<polygon fill="white" stroke="transparent" points="-4,4 -4,-528.74 1005.18,-528.74 1005.18,4 -4,4"/>
<!-- CatalogoProductosContext -->
<g id="node1" class="node">
<title>CatalogoProductosContext</title>
<polygon fill="none" stroke="black" stroke-width="2" points="113.3,-439.33 123.62,-437.89 134.11,-436.55 144.76,-435.34 155.5,-434.26 166.3,-433.3 177.12,-432.49 187.92,-431.81 198.65,-431.27 209.29,-430.88 219.8,-430.64 230.14,-430.54 240.27,-430.6 250.18,-430.81 259.83,-431.17 269.19,-431.68 278.24,-432.33 286.95,-433.13 295.32,-434.08 303.32,-435.16 310.93,-436.38 318.14,-437.72 324.95,-439.2 331.34,-440.79 337.3,-442.49 342.84,-444.3 347.95,-446.22 352.63,-448.22 356.87,-450.31 360.69,-452.47 364.08,-454.7 367.05,-456.99 369.61,-459.33 371.75,-461.72 373.49,-464.13 374.83,-466.58 375.79,-469.04 376.36,-471.5 376.56,-473.97 376.39,-476.43 375.86,-478.88 374.97,-481.29 373.75,-483.68 372.18,-486.03 370.28,-488.34 368.05,-490.59 365.49,-492.79 362.62,-494.92 359.43,-496.99 355.92,-498.99 352.11,-500.9 347.99,-502.74 343.56,-504.49 338.83,-506.16 333.8,-507.73 328.46,-509.21 322.83,-510.6 316.91,-511.9 310.69,-513.09 304.18,-514.19 297.39,-515.19 290.32,-516.09 282.98,-516.88 275.37,-517.58 267.5,-518.18 259.38,-518.69 251.03,-519.09 242.45,-519.39 233.67,-519.6 224.69,-519.71 215.53,-519.73 206.22,-519.65 196.77,-519.47 187.21,-519.21 177.56,-518.85 167.86,-518.4 158.12,-517.86 148.37,-517.23 138.66,-516.52 129,-515.71 119.44,-514.82 110.01,-513.85 100.73,-512.79 91.66,-511.66 82.82,-510.43 74.25,-509.13 65.99,-507.76 58.06,-506.3 50.52,-504.77 43.38,-503.17 36.69,-501.49 30.47,-499.75 24.76,-497.94 19.59,-496.06 14.97,-494.13 10.95,-492.14 7.53,-490.1 4.74,-488 2.59,-485.87 1.1,-483.69 0.28,-481.47 0.13,-479.22 0.67,-476.95 1.89,-474.66 3.79,-472.35 6.37,-470.04 9.62,-467.73 13.52,-465.42 18.06,-463.13 23.22,-460.85 28.98,-458.61 35.33,-456.39 42.22,-454.23 49.64,-452.11 57.54,-450.05 65.91,-448.06 74.69,-446.13 83.86,-444.29 93.38,-442.54 103.21,-440.89 113.3,-439.33"/>
<text text-anchor="middle" x="202.87" y="-473.88" font-family="sans-serif" font-size="16.00">CatalogoProductosContext</text>
</g>
<!-- GestionOrdenesContext -->
<g id="node2" class="node">
<title>GestionOrdenesContext</title>
<polygon fill="none" stroke="black" stroke-width="2" points="132.86,-376.53 122.83,-375.37 113.05,-374.11 103.56,-372.75 94.41,-371.29 85.63,-369.75 77.26,-368.12 69.34,-366.41 61.88,-364.64 54.93,-362.79 48.51,-360.89 42.63,-358.93 37.34,-356.92 32.63,-354.86 28.52,-352.77 25.03,-350.65 22.17,-348.5 19.93,-346.33 18.33,-344.15 17.35,-341.95 17,-339.75 17.26,-337.55 18.13,-335.36 19.6,-333.18 21.64,-331.01 24.24,-328.87 27.38,-326.75 31.04,-324.66 35.19,-322.6 39.8,-320.59 44.86,-318.61 50.32,-316.69 56.17,-314.81 62.38,-312.99 68.9,-311.23 75.72,-309.53 82.8,-307.9 90.11,-306.34 97.62,-304.85 105.3,-303.44 113.13,-302.1 121.08,-300.85 129.11,-299.69 137.21,-298.61 145.36,-297.62 153.52,-296.73 161.68,-295.94 169.82,-295.24 177.93,-294.65 185.98,-294.16 193.96,-293.78 201.85,-293.5 209.65,-293.33 217.35,-293.28 224.93,-293.33 232.39,-293.5 239.72,-293.78 246.91,-294.17 253.96,-294.68 260.86,-295.31 267.61,-296.04 274.2,-296.89 280.63,-297.85 286.9,-298.93 293.01,-300.11 298.94,-301.39 304.69,-302.78 310.26,-304.28 315.65,-305.87 320.84,-307.55 325.83,-309.33 330.62,-311.19 335.18,-313.13 339.53,-315.15 343.63,-317.25 347.49,-319.4 351.08,-321.62 354.41,-323.89 357.44,-326.2 360.18,-328.55 362.6,-330.94 364.69,-333.35 366.44,-335.78 367.82,-338.22 368.83,-340.66 369.44,-343.1 369.65,-345.52 369.43,-347.92 368.79,-350.29 367.69,-352.62 366.13,-354.91 364.11,-357.15 361.61,-359.33 358.62,-361.44 355.14,-363.47 351.17,-365.43 346.71,-367.3 341.76,-369.07 336.31,-370.75 330.39,-372.32 323.99,-373.78 317.13,-375.13 309.83,-376.36 302.1,-377.47 293.95,-378.46 285.42,-379.32 276.53,-380.04 267.3,-380.64 257.76,-381.1 247.95,-381.44 237.91,-381.63 227.65,-381.7 217.24,-381.63 206.69,-381.43 196.06,-381.1 185.39,-380.64 174.72,-380.06 164.08,-379.35 153.54,-378.53 143.11,-377.59 132.86,-376.53"/>
<text text-anchor="middle" x="202.87" y="-332.73" font-family="sans-serif" font-size="16.00">GestionOrdenesContext</text>
</g>
<!-- CatalogoProductosContext&#45;&gt;GestionOrdenesContext -->
<g id="edge1" class="edge">
<title>CatalogoProductosContext&#45;&gt;GestionOrdenesContext</title>
<path fill="none" stroke="black" stroke-width="2" d="M202.87,-431.11C202.87,-415.26 202.87,-397.51 202.87,-381.77"/>
<text text-anchor="middle" x="278.37" y="-403.01" font-family="sans-serif" font-size="12.00"> &#160;&#160;&#160;&#160;&#160;&#160;&#160;&#160;&#160;&#160;&#160;&#160;&#160;&#160;&#160;&#160;&#160;&#160;&#160;&#160;&#160;&#160;&#160;&#160;&#160;&#160;&#160;&#160;&#160;&#160;&#160;&#160;&#160;&#160;&#160;&#160;&#160;&#160;&#160;</text>
<polygon fill="white" stroke="transparent" points="195.87,-372.77 195.87,-389.77 209.87,-389.77 209.87,-372.77 195.87,-372.77"/>
<text text-anchor="start" x="197.87" y="-378.17" font-family="sans-serif" font-size="12.00">D</text>
<polygon fill="white" stroke="transparent" points="178.87,-421.11 178.87,-440.11 194.87,-440.11 194.87,-421.11 178.87,-421.11"/>
<polyline fill="none" stroke="black" points="194.87,-421.11 194.87,-440.11 "/>
<text text-anchor="start" x="181.87" y="-427.51" font-family="sans-serif" font-size="12.00">U</text>
<polygon fill="white" stroke="transparent" points="194.87,-421.11 194.87,-440.11 227.87,-440.11 227.87,-421.11 194.87,-421.11"/>
<polygon fill="none" stroke="black" points="194.87,-421.11 194.87,-440.11 227.87,-440.11 227.87,-421.11 194.87,-421.11"/>
<text text-anchor="start" x="197.87" y="-427.51" font-family="sans-serif" font-size="12.00">OHS</text>
</g>
<!-- GestionPagosContext -->
<g id="node3" class="node">
<title>GestionPagosContext</title>
<polygon fill="none" stroke="black" stroke-width="2" points="355.66,-195.87 355.34,-198.74 354.61,-201.6 353.46,-204.41 351.89,-207.18 349.91,-209.9 347.52,-212.54 344.74,-215.11 341.55,-217.59 337.99,-219.97 334.04,-222.25 329.73,-224.41 325.06,-226.45 320.06,-228.36 314.72,-230.15 309.07,-231.79 303.12,-233.29 296.89,-234.65 290.4,-235.86 283.66,-236.92 276.7,-237.83 269.52,-238.59 262.16,-239.2 254.63,-239.66 246.96,-239.97 239.16,-240.15 231.26,-240.18 223.28,-240.07 215.24,-239.83 207.17,-239.46 199.09,-238.97 191.02,-238.37 182.98,-237.65 175,-236.82 167.1,-235.89 159.3,-234.87 151.62,-233.76 144.09,-232.57 136.73,-231.3 129.56,-229.96 122.59,-228.56 115.85,-227.1 109.35,-225.58 103.11,-224.01 97.16,-222.4 91.5,-220.75 86.16,-219.06 81.14,-217.34 76.46,-215.59 72.14,-213.82 68.18,-212.02 64.59,-210.21 61.39,-208.37 58.58,-206.52 56.17,-204.66 54.16,-202.78 52.57,-200.89 51.38,-199 50.62,-197.09 50.27,-195.18 50.34,-193.26 50.83,-191.34 51.73,-189.42 53.04,-187.49 54.76,-185.56 56.89,-183.64 59.4,-181.72 62.31,-179.8 65.6,-177.9 69.26,-176 73.27,-174.12 77.64,-172.26 82.34,-170.42 87.37,-168.61 92.7,-166.83 98.34,-165.08 104.25,-163.38 110.42,-161.72 116.84,-160.11 123.49,-158.57 130.35,-157.08 137.41,-155.67 144.64,-154.34 152.02,-153.09 159.54,-151.93 167.18,-150.87 174.91,-149.91 182.72,-149.06 190.58,-148.33 198.47,-147.72 206.38,-147.24 214.28,-146.9 222.14,-146.69 229.96,-146.62 237.71,-146.71 245.36,-146.94 252.91,-147.32 260.32,-147.86 267.58,-148.56 274.66,-149.41 281.56,-150.42 288.25,-151.58 294.71,-152.9 300.92,-154.36 306.88,-155.97 312.55,-157.73 317.93,-159.62 323.01,-161.64 327.76,-163.78 332.17,-166.04 336.24,-168.41 339.94,-170.88 343.28,-173.44 346.23,-176.08 348.79,-178.79 350.96,-181.55 352.73,-184.37 354.08,-187.22 355.02,-190.09 355.55,-192.98 355.66,-195.87"/>
<text text-anchor="middle" x="202.87" y="-190.04" font-family="sans-serif" font-size="16.00">GestionPagosContext</text>
</g>
<!-- GestionOrdenesContext&#45;&gt;GestionPagosContext -->
<g id="edge2" class="edge">
<title>GestionOrdenesContext&#45;&gt;GestionPagosContext</title>
<path fill="none" stroke="black" stroke-width="2" d="M202.87,-293.31C202.87,-276.32 202.87,-256.7 202.87,-239.46"/>
<text text-anchor="middle" x="237.37" y="-263.84" font-family="sans-serif" font-size="12.00">Partnership</text>
</g>
<!-- GestionClientesContext -->
<g id="node4" class="node">
<title>GestionClientesContext</title>
<polygon fill="none" stroke="black" stroke-width="2" points="768.9,-170.27 774.83,-172.68 780.34,-175.14 785.4,-177.64 789.99,-180.16 794.09,-182.71 797.69,-185.27 800.75,-187.84 803.28,-190.39 805.26,-192.93 806.67,-195.45 807.51,-197.93 807.78,-200.37 807.46,-202.77 806.57,-205.11 805.11,-207.39 803.07,-209.6 800.47,-211.74 797.32,-213.8 793.63,-215.78 789.41,-217.68 784.68,-219.49 779.46,-221.2 773.77,-222.82 767.64,-224.35 761.09,-225.77 754.14,-227.1 746.82,-228.33 739.17,-229.47 731.21,-230.5 722.98,-231.43 714.5,-232.27 705.81,-233 696.94,-233.64 687.93,-234.19 678.8,-234.64 669.59,-235 660.33,-235.26 651.05,-235.44 641.79,-235.53 632.57,-235.53 623.43,-235.44 614.38,-235.27 605.46,-235.02 596.7,-234.68 588.11,-234.26 579.72,-233.76 571.55,-233.18 563.63,-232.53 555.96,-231.79 548.56,-230.97 541.45,-230.07 534.65,-229.1 528.16,-228.05 521.99,-226.92 516.16,-225.71 510.67,-224.43 505.52,-223.07 500.73,-221.64 496.29,-220.13 492.21,-218.55 488.5,-216.89 485.14,-215.17 482.15,-213.37 479.51,-211.51 477.24,-209.59 475.33,-207.6 473.78,-205.55 472.58,-203.44 471.74,-201.29 471.25,-199.09 471.1,-196.84 471.31,-194.56 471.86,-192.24 472.75,-189.9 473.97,-187.54 475.54,-185.17 477.44,-182.79 479.67,-180.42 482.24,-178.05 485.12,-175.71 488.34,-173.38 491.88,-171.1 495.73,-168.85 499.91,-166.66 504.39,-164.53 509.19,-162.47 514.29,-160.49 519.69,-158.59 525.39,-156.79 531.37,-155.09 537.63,-153.51 544.17,-152.04 550.97,-150.69 558.03,-149.48 565.33,-148.41 572.86,-147.48 580.6,-146.7 588.55,-146.07 596.68,-145.6 604.97,-145.28 613.42,-145.13 622,-145.14 630.68,-145.31 639.44,-145.65 648.27,-146.15 657.13,-146.81 665.99,-147.63 674.84,-148.6 683.64,-149.72 692.37,-150.99 700.99,-152.4 709.48,-153.95 717.8,-155.62 725.92,-157.42 733.82,-159.33 741.47,-161.34 748.83,-163.45 755.87,-165.65 762.57,-167.93 768.9,-170.27"/>
<text text-anchor="middle" x="628.87" y="-190.04" font-family="sans-serif" font-size="16.00">GestionClientesContext</text>
</g>
<!-- GestionOrdenesContext&#45;&gt;GestionClientesContext -->
<g id="edge3" class="edge">
<title>GestionOrdenesContext&#45;&gt;GestionClientesContext</title>
<path fill="none" stroke="black" stroke-width="2" d="M303.28,-302.36C371.05,-279.98 460.16,-250.55 528.02,-228.14"/>
<text text-anchor="middle" x="463.37" y="-263.84" font-family="sans-serif" font-size="12.00">Partnership</text>
</g>
<!-- GestionEnviosContext -->
<g id="node5" class="node">
<title>GestionEnviosContext</title>
<polygon fill="none" stroke="black" stroke-width="2" points="529.23,-14.06 537.07,-12.21 545.14,-10.45 553.4,-8.82 561.82,-7.3 570.38,-5.9 579.03,-4.64 587.76,-3.52 596.52,-2.55 605.29,-1.72 614.03,-1.04 622.73,-0.51 631.35,-0.14 639.87,0.07 648.26,0.12 656.51,0.01 664.58,-0.26 672.46,-0.68 680.13,-1.26 687.57,-2 694.77,-2.88 701.72,-3.9 708.39,-5.07 714.79,-6.37 720.9,-7.8 726.72,-9.36 732.23,-11.03 737.43,-12.81 742.32,-14.69 746.9,-16.66 751.15,-18.72 755.09,-20.85 758.71,-23.05 762,-25.31 764.97,-27.62 767.62,-29.98 769.96,-32.36 771.97,-34.77 773.67,-37.19 775.05,-39.63 776.12,-42.06 776.87,-44.48 777.31,-46.88 777.44,-49.27 777.26,-51.62 776.77,-53.93 775.97,-56.21 774.86,-58.43 773.44,-60.6 771.71,-62.72 769.67,-64.77 767.31,-66.75 764.65,-68.66 761.68,-70.5 758.39,-72.27 754.79,-73.95 750.89,-75.55 746.67,-77.08 742.14,-78.52 737.31,-79.87 732.18,-81.14 726.75,-82.32 721.03,-83.41 715.02,-84.42 708.72,-85.34 702.16,-86.18 695.34,-86.92 688.26,-87.58 680.95,-88.16 673.41,-88.64 665.67,-89.04 657.73,-89.35 649.62,-89.57 641.36,-89.71 632.97,-89.76 624.47,-89.73 615.89,-89.6 607.24,-89.39 598.57,-89.09 589.9,-88.71 581.25,-88.23 572.65,-87.67 564.15,-87.01 555.75,-86.27 547.51,-85.43 539.45,-84.51 531.59,-83.5 523.98,-82.39 516.64,-81.2 509.6,-79.92 502.89,-78.55 496.55,-77.09 490.59,-75.55 485.05,-73.92 479.94,-72.2 475.3,-70.41 471.13,-68.54 467.47,-66.59 464.32,-64.57 461.71,-62.49 459.64,-60.34 458.13,-58.13 457.17,-55.86 456.79,-53.55 456.97,-51.2 457.72,-48.81 459.03,-46.4 460.9,-43.96 463.32,-41.51 466.29,-39.05 469.77,-36.59 473.78,-34.15 478.27,-31.72 483.24,-29.32 488.66,-26.96 494.5,-24.65 500.75,-22.39 507.38,-20.19 514.35,-18.06 521.65,-16.02 529.23,-14.06"/>
<text text-anchor="middle" x="628.87" y="-44.32" font-family="sans-serif" font-size="16.00">GestionEnviosContext</text>
</g>
<!-- GestionClientesContext&#45;&gt;GestionEnviosContext -->
<g id="edge4" class="edge">
<title>GestionClientesContext&#45;&gt;GestionEnviosContext</title>
<path fill="none" stroke="black" stroke-width="2" d="M628.87,-144.98C628.87,-127.18 628.87,-107.16 628.87,-90.03"/>
<text text-anchor="middle" x="663.37" y="-117.63" font-family="sans-serif" font-size="12.00">Partnership</text>
</g>
<!-- GestionAutorizacionAutenticacionContext -->
<g id="node6" class="node">
<title>GestionAutorizacionAutenticacionContext</title>
<polygon fill="none" stroke="black" stroke-width="2" points="608.74,-377.77 592.16,-376.8 575.94,-375.71 560.15,-374.53 544.85,-373.24 530.12,-371.86 516,-370.39 502.57,-368.83 489.85,-367.19 477.92,-365.47 466.81,-363.69 456.55,-361.84 447.2,-359.93 438.77,-357.96 431.3,-355.95 424.8,-353.89 419.29,-351.8 414.77,-349.67 411.26,-347.52 408.76,-345.34 407.25,-343.15 406.74,-340.95 407.19,-338.74 408.61,-336.54 410.96,-334.34 414.21,-332.15 418.34,-329.97 423.31,-327.82 429.08,-325.69 435.62,-323.59 442.88,-321.53 450.82,-319.5 459.4,-317.52 468.57,-315.59 478.27,-313.71 488.48,-311.89 499.13,-310.13 510.18,-308.44 521.58,-306.81 533.3,-305.26 545.28,-303.78 557.48,-302.39 569.87,-301.08 582.4,-299.85 595.03,-298.72 607.74,-297.68 620.49,-296.74 633.24,-295.89 645.98,-295.15 658.68,-294.52 671.3,-293.99 683.85,-293.57 696.28,-293.26 708.6,-293.06 720.77,-292.97 732.8,-293 744.67,-293.15 756.37,-293.41 767.88,-293.79 779.22,-294.29 790.35,-294.9 801.29,-295.63 812.01,-296.47 822.52,-297.43 832.81,-298.49 842.87,-299.67 852.69,-300.96 862.26,-302.35 871.58,-303.84 880.62,-305.42 889.39,-307.11 897.85,-308.88 906,-310.74 913.83,-312.67 921.3,-314.69 928.41,-316.77 935.12,-318.92 941.42,-321.12 947.28,-323.38 952.67,-325.68 957.57,-328.02 961.96,-330.39 965.79,-332.79 969.05,-335.2 971.71,-337.62 973.74,-340.04 975.11,-342.45 975.79,-344.85 975.76,-347.23 975,-349.59 973.49,-351.9 971.2,-354.17 968.12,-356.39 964.23,-358.56 959.53,-360.65 954,-362.68 947.64,-364.63 940.46,-366.49 932.45,-368.27 923.62,-369.95 913.99,-371.52 903.57,-373 892.39,-374.36 880.47,-375.61 867.83,-376.74 854.52,-377.76 840.57,-378.65 826.03,-379.41 810.94,-380.05 795.36,-380.56 779.33,-380.94 762.92,-381.19 746.19,-381.32 729.2,-381.31 712.02,-381.17 694.71,-380.91 677.35,-380.53 660,-380.02 642.74,-379.38 625.63,-378.64 608.74,-377.77"/>
<text text-anchor="middle" x="703.87" y="-332.73" font-family="sans-serif" font-size="16.00">GestionAutorizacionAutenticacionContext</text>
</g>
<!-- GestionAutorizacionAutenticacionContext&#45;&gt;GestionClientesContext -->
<g id="edge5" class="edge">
<title>GestionAutorizacionAutenticacionContext&#45;&gt;GestionClientesContext</title>
<path fill="none" stroke="black" stroke-width="2" d="M681.36,-293.31C671.61,-275.02 660.24,-253.69 650.58,-235.57"/>
<text text-anchor="middle" x="744.37" y="-263.84" font-family="sans-serif" font-size="12.00"> &#160;&#160;&#160;&#160;&#160;&#160;&#160;&#160;&#160;&#160;&#160;&#160;&#160;&#160;&#160;&#160;&#160;&#160;&#160;&#160;&#160;&#160;&#160;&#160;&#160;&#160;&#160;&#160;&#160;&#160;&#160;&#160;&#160;&#160;&#160;&#160;&#160;&#160;&#160;</text>
<polygon fill="white" stroke="transparent" points="631.58,-225.57 631.58,-244.57 647.58,-244.57 647.58,-225.57 631.58,-225.57"/>
<polyline fill="none" stroke="black" points="647.58,-225.57 647.58,-244.57 "/>
<text text-anchor="start" x="634.58" y="-231.97" font-family="sans-serif" font-size="12.00">D</text>
<polygon fill="white" stroke="transparent" points="647.58,-225.57 647.58,-244.57 669.58,-244.57 669.58,-225.57 647.58,-225.57"/>
<polygon fill="none" stroke="black" points="647.58,-225.57 647.58,-244.57 669.58,-244.57 669.58,-225.57 647.58,-225.57"/>
<text text-anchor="start" x="650.58" y="-231.97" font-family="sans-serif" font-size="12.00">CF</text>
<polygon fill="white" stroke="transparent" points="663.36,-283.31 663.36,-302.31 679.36,-302.31 679.36,-283.31 663.36,-283.31"/>
<polyline fill="none" stroke="black" points="679.36,-283.31 679.36,-302.31 "/>
<text text-anchor="start" x="666.36" y="-289.71" font-family="sans-serif" font-size="12.00">U</text>
<polygon fill="white" stroke="transparent" points="679.36,-283.31 679.36,-302.31 700.36,-302.31 700.36,-283.31 679.36,-283.31"/>
<polygon fill="none" stroke="black" points="679.36,-283.31 679.36,-302.31 700.36,-302.31 700.36,-283.31 679.36,-283.31"/>
<text text-anchor="start" x="682.36" y="-289.71" font-family="sans-serif" font-size="12.00">PL</text>
</g>
</g>
</svg>
